<svg width="581" height="255" viewBox="0 0 581 255" fill="none" xmlns="http://www.w3.org/2000/svg">
<g opacity="0.65">
<g filter="url(#filter0_d_304_376)">
<path d="M99.0909 167.631H36.2734L4.86553 113.304L36.2734 58.9695H99.0908L130.507 113.304L99.0909 167.631Z" stroke="white" stroke-width="1.4988"/>
<path d="M205.809 113.411H142.992L111.584 59.0843L142.992 4.7494H205.809L237.226 59.0843L205.809 113.411Z" stroke="white" stroke-width="1.4988"/>
<path d="M544.035 113.411H481.218L449.81 59.0843L481.218 4.7494H544.035L575.451 59.0843L544.035 113.411Z" stroke="white" stroke-width="1.4988"/>
<path d="M406.368 221.85H280.989L218.3 113.308L280.989 4.7494H406.368L469.074 113.308L406.368 221.85Z" stroke="white" stroke-width="1.4988"/>
<path d="M141.914 185.703H121.691L111.586 168.381L121.691 151.056H141.914L152.022 168.381L141.914 185.703Z" stroke="white" stroke-width="1.4988"/>
<path d="M177.199 208.08H156.976L146.871 190.758L156.976 173.432H177.199L187.306 190.758L177.199 208.08Z" stroke="white" stroke-width="1.4988"/>
<path d="M494.77 160.747H474.547L464.442 143.424L474.547 126.099H494.77L504.877 143.424L494.77 160.747Z" stroke="white" stroke-width="1.4988"/>
<path d="M552 198.613H518.87L502.309 170.103L518.87 141.589H552L568.565 170.103L552 198.613Z" stroke="white" stroke-width="1.4988"/>
<path d="M471.099 250.25H437.969L421.408 221.74L437.969 193.226H471.099L487.665 221.74L471.099 250.25Z" stroke="white" stroke-width="1.4988"/>
<path d="M104.046 48.864H83.8224L73.7176 31.5416L83.8225 14.2164H104.046L114.153 31.5416L104.046 48.864Z" stroke="white" stroke-width="1.4988"/>
</g>
<g opacity="0.5">
<path d="M533.43 89.3579H491.535C490.829 89.3579 490.252 88.7813 490.252 88.0756V35.431C490.252 34.7253 490.829 34.1487 491.535 34.1487H533.43C534.136 34.1487 534.712 34.7253 534.712 35.431V88.0756C534.712 88.7813 534.136 89.3579 533.43 89.3579Z" fill="white" fill-opacity="0.45"/>
<path d="M530.358 85.6493H494.608C494.022 85.6493 493.558 85.1759 493.558 84.5993V38.6676C493.558 38.0824 494.031 37.6177 494.608 37.6177H530.358C530.943 37.6177 531.408 38.091 531.408 38.6676V84.5907C531.408 85.1759 530.935 85.6493 530.358 85.6493Z" fill="white"/>
<path d="M516.887 32.2466C516.535 32.2466 516.233 32.0142 516.139 31.67C515.691 30.1036 514.28 28.959 512.576 28.959C510.872 28.959 509.46 30.1036 509.021 31.67C508.927 32.0056 508.625 32.2466 508.272 32.2466H506.491C506.061 32.2466 505.708 32.5994 505.708 33.0297V38.1677C505.708 38.598 506.061 38.9509 506.491 38.9509H518.6C519.03 38.9509 519.383 38.598 519.383 38.1677V33.0297C519.383 32.5994 519.03 32.2466 518.6 32.2466H516.887ZM512.576 34.0969C511.784 34.0969 511.147 33.4601 511.147 32.6683C511.147 31.8765 511.784 31.2396 512.576 31.2396C513.367 31.2396 514.004 31.8765 514.004 32.6683C514.004 33.4601 513.367 34.0969 512.576 34.0969Z" fill="white"/>
</g>
<path d="M99.0909 167.631H36.2734L4.86553 113.304L36.2734 58.9695H99.0908L130.507 113.304L99.0909 167.631Z" stroke="white" stroke-width="1.4988"/>
<g opacity="0.5">
<g opacity="0.6">
<path d="M68.5742 133.956H93.9713C95.77 133.956 97.2245 132.501 97.2245 130.702V112.999C97.2245 111.201 95.77 109.746 93.9713 109.746H68.5742C66.7755 109.746 65.321 111.201 65.321 112.999V130.694C65.321 132.501 66.7755 133.956 68.5742 133.956Z" fill="white" fill-opacity="0.6"/>
<path d="M97.2243 129.455V137.011C97.2243 137.613 96.5014 137.923 96.0625 137.51L91.3118 132.957L97.2243 129.455Z" fill="white" fill-opacity="0.6"/>
</g>
<path d="M81.3539 124.239H41.679C39.8803 124.239 38.4259 122.785 38.4259 120.986V92.4561C38.4259 90.6573 39.8803 89.2029 41.679 89.2029H81.3539C83.1526 89.2029 84.6071 90.6573 84.6071 92.4561V120.986C84.6071 122.785 83.1526 124.239 81.3539 124.239Z" fill="white"/>
<path d="M38.4251 117.724V128.662C38.4251 129.54 39.4751 129.988 40.112 129.385L46.997 122.793L38.4251 117.724Z" fill="white"/>
</g>
<path d="M51.0254 96.6731H46.3092V101.389H51.0254V96.6731Z" stroke="white" stroke-opacity="0.8" stroke-width="0.562048" stroke-miterlimit="10" stroke-linejoin="round"/>
<path d="M47.5983 98.8769L48.545 99.6945L49.6466 98.4036" stroke="white" stroke-opacity="0.8" stroke-width="0.562048" stroke-miterlimit="10" stroke-linejoin="round"/>
<path d="M51.0223 104.885H46.3061V109.601H51.0223V104.885Z" stroke="white" stroke-opacity="0.8" stroke-width="0.562048" stroke-miterlimit="10" stroke-linejoin="round"/>
<path d="M47.596 107.087L48.5427 107.905L49.6443 106.614" stroke="white" stroke-opacity="0.8" stroke-width="0.562048" stroke-miterlimit="10" stroke-linejoin="round"/>
<path d="M51.0223 113.086H46.3061V117.802H51.0223V113.086Z" stroke="white" stroke-opacity="0.8" stroke-width="0.562048" stroke-miterlimit="10" stroke-linejoin="round"/>
<path d="M47.596 115.29L48.5427 116.107L49.6443 114.816" stroke="white" stroke-opacity="0.8" stroke-width="0.562048" stroke-miterlimit="10" stroke-linejoin="round"/>
<path d="M56.0656 97.6038H68.5016" stroke="white" stroke-opacity="0.8" stroke-width="0.562048" stroke-miterlimit="10" stroke-linejoin="round"/>
<path d="M56.0659 100.168H74.3886" stroke="white" stroke-opacity="0.8" stroke-width="0.562048" stroke-miterlimit="10" stroke-linejoin="round"/>
<path d="M56.0656 105.675H68.5016" stroke="white" stroke-opacity="0.8" stroke-width="0.562048" stroke-miterlimit="10" stroke-linejoin="round"/>
<path d="M56.0659 108.239H74.3886" stroke="white" stroke-opacity="0.8" stroke-width="0.562048" stroke-miterlimit="10" stroke-linejoin="round"/>
<path d="M56.068 113.748H68.5041" stroke="white" stroke-opacity="0.8" stroke-width="0.562048" stroke-miterlimit="10" stroke-linejoin="round"/>
<path d="M56.0659 116.314H74.3886" stroke="white" stroke-opacity="0.8" stroke-width="0.562048" stroke-miterlimit="10" stroke-linejoin="round"/>
<path d="M205.809 113.411H142.992L111.584 59.0843L142.992 4.7494H205.809L237.226 59.0843L205.809 113.411Z" stroke="white" stroke-width="1.4988"/>
<g opacity="0.5">
<path d="M152.781 86.3029L151.042 85.0636C150.251 84.5041 150.07 83.4025 150.629 82.6194L162.343 66.1298L166.938 69.4088L155.225 85.8898C154.666 86.6815 153.564 86.8623 152.781 86.3029Z" fill="white" fill-opacity="0.6"/>
<path d="M161.903 76.5247L166.938 69.3987L162.333 66.1283L157.204 73.392L161.903 76.5247Z" fill="white"/>
<path d="M175.924 30.6772C163.479 30.6772 153.393 40.7638 153.393 53.1999C153.393 65.6359 163.479 75.7225 175.915 75.7225C188.351 75.7225 198.438 65.6359 198.438 53.1999C198.447 40.7638 188.36 30.6772 175.924 30.6772ZM175.924 70.378C166.44 70.378 158.746 62.684 158.746 53.1999C158.746 43.7157 166.431 36.0217 175.924 36.0217C185.408 36.0217 193.102 43.7157 193.102 53.1999C193.102 62.684 185.408 70.378 175.924 70.378Z" fill="white"/>
<path d="M175.854 50.9185C177.954 50.9185 179.658 49.2154 179.658 47.1145C179.658 45.0136 177.954 43.3105 175.854 43.3105C173.753 43.3105 172.05 45.0136 172.05 47.1145C172.05 49.2154 173.753 50.9185 175.854 50.9185Z" fill="white"/>
<path d="M180.613 62.572H171.276C170.888 62.572 170.578 62.2622 170.578 61.8749V55.0674C170.578 53.6215 171.749 52.451 173.195 52.451H178.686C180.131 52.451 181.302 53.6215 181.302 55.0674V61.8749C181.302 62.2536 180.992 62.572 180.613 62.572Z" fill="white"/>
</g>
<path d="M544.035 113.411H481.218L449.81 59.0843L481.218 4.7494H544.035L575.451 59.0843L544.035 113.411Z" stroke="white" stroke-width="1.4988"/>
<path d="M508.561 55.0527H498.706C498.379 55.0527 498.113 54.7859 498.113 54.4589V44.6047C498.113 44.2777 498.379 44.0109 498.706 44.0109H508.561C508.888 44.0109 509.154 44.2777 509.154 44.6047V54.4589C509.154 54.7859 508.888 55.0527 508.561 55.0527Z" fill="white" fill-opacity="0.8"/>
<path d="M504.894 47.3157C504.894 48.1333 504.231 48.7873 503.422 48.7873C502.604 48.7873 501.95 48.1247 501.95 47.3157C501.95 46.4981 502.613 45.844 503.422 45.844C504.231 45.844 504.894 46.4981 504.894 47.3157Z" fill="white" fill-opacity="0.8"/>
<path d="M505.531 53.3072H501.374V50.2519C501.374 49.77 501.762 49.3827 502.244 49.3827H504.662C505.144 49.3827 505.531 49.77 505.531 50.2519V53.3072Z" fill="white" fill-opacity="0.8"/>
<path d="M513.725 47.3237H521.385" stroke="white" stroke-width="0.749398" stroke-miterlimit="10"/>
<path d="M513.725 52.4624H525.722" stroke="white" stroke-width="0.749398" stroke-miterlimit="10"/>
<path d="M498.373 61.0864H525.861" stroke="white" stroke-width="0.749398" stroke-miterlimit="10"/>
<path d="M498.371 66.5956H525.859" stroke="white" stroke-width="0.749398" stroke-miterlimit="10"/>
<path d="M498.371 72.1107H525.859" stroke="white" stroke-width="0.749398" stroke-miterlimit="10"/>
<path d="M498.371 77.6173H525.859" stroke="white" stroke-width="0.749398" stroke-miterlimit="10"/>
<path d="M406.368 221.85H280.989L218.3 113.308L280.989 4.7494H406.368L469.074 113.308L406.368 221.85Z" stroke="white" stroke-width="1.4988"/>
<path d="M141.914 185.703H121.691L111.586 168.381L121.691 151.056H141.914L152.022 168.381L141.914 185.703Z" stroke="white" stroke-width="1.4988"/>
<path d="M177.199 208.08H156.976L146.871 190.758L156.976 173.432H177.199L187.306 190.758L177.199 208.08Z" stroke="white" stroke-width="1.4988"/>
<path d="M494.77 160.747H474.547L464.442 143.424L474.547 126.099H494.77L504.877 143.424L494.77 160.747Z" stroke="white" stroke-width="1.4988"/>
<path d="M552 198.613H518.87L502.309 170.103L518.87 141.589H552L568.565 170.103L552 198.613Z" stroke="white" stroke-width="1.4988"/>
<path d="M471.099 250.25H437.969L421.408 221.74L437.969 193.226H471.099L487.665 221.74L471.099 250.25Z" stroke="white" stroke-width="1.4988"/>
<path d="M104.046 48.864H83.8224L73.7176 31.5416L83.8225 14.2164H104.046L114.153 31.5416L104.046 48.864Z" stroke="white" stroke-width="1.4988"/>
</g>
<defs>
<filter id="filter0_d_304_376" x="0.252934" y="0.25301" width="579.811" height="254.494" filterUnits="userSpaceOnUse" color-interpolation-filters="sRGB">
<feFlood flood-opacity="0" result="BackgroundImageFix"/>
<feColorMatrix in="SourceAlpha" type="matrix" values="0 0 0 0 0 0 0 0 0 0 0 0 0 0 0 0 0 0 127 0" result="hardAlpha"/>
<feOffset/>
<feGaussianBlur stdDeviation="1.8735"/>
<feColorMatrix type="matrix" values="0 0 0 0 1 0 0 0 0 1 0 0 0 0 1 0 0 0 1 0"/>
<feBlend mode="normal" in2="BackgroundImageFix" result="effect1_dropShadow_304_376"/>
<feBlend mode="normal" in="SourceGraphic" in2="effect1_dropShadow_304_376" result="shape"/>
</filter>
</defs>
</svg>
