<svg width="24" height="25" viewBox="0 0 24 25" fill="none" xmlns="http://www.w3.org/2000/svg">
<path d="M15.5 14.3037H14.71L14.43 14.0337C15.41 12.8937 16 11.4137 16 9.80371C16 6.21371 13.09 3.30371 9.5 3.30371C5.91 3.30371 3 6.21371 3 9.80371C3 13.3937 5.91 16.3037 9.5 16.3037C11.11 16.3037 12.59 15.7137 13.73 14.7337L14 15.0137V15.8037L19 20.7937L20.49 19.3037L15.5 14.3037ZM9.5 14.3037C7.01 14.3037 5 12.2937 5 9.80371C5 7.31371 7.01 5.30371 9.5 5.30371C11.99 5.30371 14 7.31371 14 9.80371C14 12.2937 11.99 14.3037 9.5 14.3037Z" fill="white"/>
</svg>
