<svg width="24" height="25" viewBox="0 0 24 25" fill="none" xmlns="http://www.w3.org/2000/svg">
<path d="M12 4.80371C7 4.80371 2.73 7.91371 1 12.3037C2.73 16.6937 7 19.8037 12 19.8037C17 19.8037 21.27 16.6937 23 12.3037C21.27 7.91371 17 4.80371 12 4.80371ZM12 17.3037C9.24 17.3037 7 15.0637 7 12.3037C7 9.54371 9.24 7.30371 12 7.30371C14.76 7.30371 17 9.54371 17 12.3037C17 15.0637 14.76 17.3037 12 17.3037ZM12 9.30371C10.34 9.30371 9 10.6437 9 12.3037C9 13.9637 10.34 15.3037 12 15.3037C13.66 15.3037 15 13.9637 15 12.3037C15 10.6437 13.66 9.30371 12 9.30371Z" fill="white"/>
</svg>
